<svg xmlns="http://www.w3.org/2000/svg" viewBox="0 0 512 512" fill="none">
  <defs>
    <linearGradient id="orbit-gradient" x1="82" y1="82" x2="430" y2="430" gradientUnits="userSpaceOnUse">
      <stop stop-color="#38BDF8"/>
      <stop offset=".34" stop-color="#6366F1"/>
      <stop offset=".68" stop-color="#D946EF"/>
      <stop offset="1" stop-color="#FB7185"/>
    </linearGradient>
    <radialGradient id="core-gradient" cx="0" cy="0" r="1" gradientTransform="translate(224 202) rotate(48) scale(136)">
      <stop stop-color="#F8FAFC"/>
      <stop offset=".22" stop-color="#C4B5FD"/>
      <stop offset=".62" stop-color="#A855F7"/>
      <stop offset="1" stop-color="#EC4899"/>
    </radialGradient>
    <filter id="soft-glow" x="-60%" y="-60%" width="220%" height="220%">
      <feGaussianBlur stdDeviation="12"/>
    </filter>
  </defs>

  <path d="M142 157C88 212 89 301 144 355C202 412 296 412 354 354"
        stroke="#6366F1" stroke-opacity=".28" stroke-width="46" stroke-linecap="round"/>
  <path d="M142 157C88 212 89 301 144 355C202 412 296 412 354 354"
        stroke="url(#orbit-gradient)" stroke-width="24" stroke-linecap="round"/>
  <path d="M174 126C238 85 326 98 374 157C417 210 417 286 374 339"
        stroke="#D946EF" stroke-opacity=".24" stroke-width="46" stroke-linecap="round"/>
  <path d="M174 126C238 85 326 98 374 157C417 210 417 286 374 339"
        stroke="url(#orbit-gradient)" stroke-width="24" stroke-linecap="round"/>

  <g stroke="url(#orbit-gradient)" stroke-width="12" stroke-linecap="round">
    <path d="M170 149L228 218"/>
    <path d="M350 165L284 222"/>
    <path d="M365 340L289 286"/>
    <path d="M151 350L222 287"/>
  </g>

  <circle cx="256" cy="256" r="76" fill="#A855F7" opacity=".34" filter="url(#soft-glow)"/>
  <circle cx="256" cy="256" r="65" fill="url(#core-gradient)"/>
  <circle cx="256" cy="256" r="38" fill="#11111A"/>
  <circle cx="256" cy="256" r="13" fill="#F8FAFC"/>

  <g>
    <circle cx="160" cy="137" r="30" fill="#11111A"/>
    <circle cx="160" cy="137" r="21" fill="#38BDF8"/>
    <circle cx="160" cy="137" r="8" fill="#E0F2FE"/>

    <circle cx="365" cy="153" r="30" fill="#11111A"/>
    <circle cx="365" cy="153" r="21" fill="#818CF8"/>
    <circle cx="365" cy="153" r="8" fill="#E0E7FF"/>

    <circle cx="379" cy="353" r="30" fill="#11111A"/>
    <circle cx="379" cy="353" r="21" fill="#FB7185"/>
    <circle cx="379" cy="353" r="8" fill="#FFE4E6"/>

    <circle cx="137" cy="365" r="30" fill="#11111A"/>
    <circle cx="137" cy="365" r="21" fill="#D946EF"/>
    <circle cx="137" cy="365" r="8" fill="#FAE8FF"/>
  </g>
</svg>
